<svg xmlns="http://www.w3.org/2000/svg" viewBox="0 0 315.1 341.14"><defs><style>.cls-1{fill:#131a25;}.cls-2{fill:#e7c296;}</style></defs><title>FLC_symbol_dark</title><g id="Layer_2" data-name="Layer 2"><g id="Layer_1-2" data-name="Layer 1"><path class="cls-1" d="M157.55,341.14l-1.32-.52C3.15,281.26,0,151.33,0,150V0H315.1V150c0,1.35-3.16,131.28-156.24,190.64ZM7.3,7.3V150c0,1.21,3.25,125.57,150.25,183.32,147-57.75,150.23-182.11,150.25-183.36V7.3Z"/><rect class="cls-1" x="51.29" y="158.71" width="7.3" height="108.9"/><rect class="cls-1" x="153.89" y="57.06" width="7.3" height="279.28"/><rect class="cls-1" x="256.5" y="107.43" width="7.3" height="160.18"/><polygon class="cls-1" points="212.5 310.79 205.19 310.79 205.19 82.46 157.54 58.38 109.89 82.46 109.89 310.79 102.59 310.79 102.59 77.96 157.54 50.19 212.5 77.96 212.5 310.79"/><polygon class="cls-1" points="212.5 312.62 205.19 312.62 205.19 129.54 260.15 101.76 313.09 128.52 309.8 135.04 260.15 109.95 212.5 134.03 212.5 312.62"/><polygon class="cls-1" points="109.89 312.62 102.59 312.62 102.59 185.06 54.94 160.98 10.23 183.57 6.94 177.06 54.94 152.79 109.89 180.56 109.89 312.62"/><path class="cls-1" d="M80.8,135.36a54.79,54.79,0,1,1,53-68.53l.73,2.86L110,82V126.9L108.23,128A54.82,54.82,0,0,1,80.8,135.36Zm0-102.27a47.49,47.49,0,1,0,21.94,89.56V77.47l23.15-11.62A47.43,47.43,0,0,0,80.8,33.09Z"/><path class="cls-2" d="M253.59,70.38V43.82l-4.83-5.51V36.6l17.17-3.51,1.33,1.24-.56,6.28V70.38L272,75.64v1.7H248.34v-1.7Z"/></g></g></svg>