<svg xmlns="http://www.w3.org/2000/svg" viewBox="0 0 482.74 54.33"><defs><style>.cls-1{fill:#fff;}</style></defs><title>FLC_white</title><g id="Layer_2" data-name="Layer 2"><g id="Layer_1-2" data-name="Layer 1"><path class="cls-1" d="M17.12,41.77v1.11H0V41.77l3.78-4.63V8.91L0,4.28V3.17H21.81l7.83-1L30.8,12.47H29.25L21.83,6.1h-9V21.36h1v0h5.93l3.45-4.69h1.26V29H23.19l-3.45-4.75H12.82V37.14Z"/><path class="cls-1" d="M34.73,38.38V21.22l-3.11-3.56V16.55L42.7,14.29l.86.8-.36,4.06V38.38l3.39,3.39v1.11H31.34V41.77Z"/><path class="cls-1" d="M61.29,15l-.36,4.14h.6A8.22,8.22,0,0,1,63,17.31a11.22,11.22,0,0,1,2.14-1.56,12.69,12.69,0,0,1,2.66-1.1,10.53,10.53,0,0,1,3-.41,8.18,8.18,0,0,1,1.23.09,5.6,5.6,0,0,1,1.2.35l-1.52,9.19-.94,0c-.29-.38-.61-.78-1-1.18a9.1,9.1,0,0,0-1.13-1.11,6.25,6.25,0,0,0-1.28-.81,3.35,3.35,0,0,0-1.42-.32,4.42,4.42,0,0,0-2.44.73,9.89,9.89,0,0,0-1.95,1.65V38.38L65,41.75v1.13H49.68V41.75l3.39-3.37V21.25L50,17.63V16.55l10.59-2.31Z"/><path class="cls-1" d="M83.92,40.92a9.84,9.84,0,0,0,1.54.11q5.1,0,5.1-3.06A3.42,3.42,0,0,0,90,36.08a6.25,6.25,0,0,0-1.42-1.55,11.85,11.85,0,0,0-2-1.31c-.78-.4-1.61-.81-2.47-1.21-1.1-.52-2.17-1.06-3.21-1.63a14.21,14.21,0,0,1-2.77-2,9.06,9.06,0,0,1-1.95-2.58,7.76,7.76,0,0,1-.73-3.45,7.13,7.13,0,0,1,.89-3.61,7.31,7.31,0,0,1,2.45-2.53,11.78,11.78,0,0,1,3.75-1.51,21.51,21.51,0,0,1,4.77-.49,20.85,20.85,0,0,1,2.19.11c.76.07,1.53.18,2.29.32s1.5.29,2.2.46a18.86,18.86,0,0,1,2,.6l-1.3,7H93.54c-1-1.38-1.89-2.56-2.68-3.52a19.41,19.41,0,0,0-2.09-2.25l-.94-.12a9.61,9.61,0,0,0-1.27-.07,5.17,5.17,0,0,0-3,.72,2.32,2.32,0,0,0-1,2A3.8,3.8,0,0,0,83,21.4a5.73,5.73,0,0,0,1.32,1.54,12.29,12.29,0,0,0,2,1.33c.79.41,1.63.84,2.53,1.28,1.05.51,2.09,1.06,3.13,1.63a15.08,15.08,0,0,1,2.8,2,9.84,9.84,0,0,1,2,2.55,7.61,7.61,0,0,1-.18,7A8.14,8.14,0,0,1,94,41.39,13,13,0,0,1,90,43a21.84,21.84,0,0,1-5,.54,29,29,0,0,1-3-.15A28.17,28.17,0,0,1,79.23,43a20.13,20.13,0,0,1-2.47-.66,15.52,15.52,0,0,1-2-.83L76.42,34h1.21c.39.57.81,1.18,1.27,1.81s.93,1.26,1.4,1.86,1,1.18,1.42,1.71.91,1,1.31,1.38A5.65,5.65,0,0,0,83.92,40.92Z"/><path class="cls-1" d="M110.34,17.47V35a3.9,3.9,0,0,0,1,3.06,3.94,3.94,0,0,0,2.68.86,5.35,5.35,0,0,0,1.37-.17,5.74,5.74,0,0,0,1.14-.44,6.41,6.41,0,0,0,1-.62l.85-.68,1.3,2A12.58,12.58,0,0,1,118,40.64a11.76,11.76,0,0,1-2.19,1.46,13.44,13.44,0,0,1-2.64,1,11.51,11.51,0,0,1-6.23-.06,7.26,7.26,0,0,1-2.61-1.38,6.16,6.16,0,0,1-1.75-2.36A8.17,8.17,0,0,1,101.9,36V17.47H98.37V15.75l3.81-1.84,6.45-6.38h1.57V15h8.3v2.52Z"/><path class="cls-1" d="M160.34,40l8.82-6.7h1.11l-1,9.63H139.56V41.77l3.77-4.63V8.91l-3.75-4.63V3.17H156.7V4.28l-4.32,4.63V40Z"/><path class="cls-1" d="M189.43,24a5.84,5.84,0,0,0-1.23-4c-.81-.92-2.18-1.38-4.09-1.38a10.25,10.25,0,0,0-2,.22,12.61,12.61,0,0,0-2,.61,17.63,17.63,0,0,0-1.86.87,10.43,10.43,0,0,0-1.57,1l-1.58-2.29a20.74,20.74,0,0,1,5.82-3.47,19.85,19.85,0,0,1,3.45-1,18.42,18.42,0,0,1,3.64-.36,14,14,0,0,1,4.8.71,7,7,0,0,1,4.6,5.08,17,17,0,0,1,.52,3.92V36.81l3,3.69v.89l-10.23,2.15-1-4.2a13.35,13.35,0,0,1-4,3,10.73,10.73,0,0,1-4.89,1.16,9.81,9.81,0,0,1-2.94-.42,6.83,6.83,0,0,1-2.31-1.19A5.71,5.71,0,0,1,174,40a5.84,5.84,0,0,1-.55-2.6,6.76,6.76,0,0,1,1.31-4.11,11.63,11.63,0,0,1,3.5-3.09,20.43,20.43,0,0,1,5.08-2.07,36.43,36.43,0,0,1,6.07-1.05Zm-1.85,14.35A8.57,8.57,0,0,0,189.43,37V29.61a15.9,15.9,0,0,0-3.16.64,8.94,8.94,0,0,0-2.42,1.18,5,5,0,0,0-1.55,1.68,4.38,4.38,0,0,0-.54,2.18,3.9,3.9,0,0,0,.87,2.8,3.25,3.25,0,0,0,2.44.9A4.86,4.86,0,0,0,187.58,38.35Z"/><path class="cls-1" d="M218.91,41.75v1.13H203.83V41.75l3.39-3.37V21.22l-3.09-3.56V16.55l10.56-2.31.74.71-.35,4.14h.6a18,18,0,0,1,2-1.83,16.48,16.48,0,0,1,2.38-1.55,13.12,13.12,0,0,1,2.69-1.07,10.85,10.85,0,0,1,3-.4,9.35,9.35,0,0,1,3.38.59,8,8,0,0,1,2.69,1.67,7.76,7.76,0,0,1,1.77,2.57,8,8,0,0,1,.65,3.28v16l3.39,3.37v1.13H222.6V41.75l3.22-3.37V23.78a7.14,7.14,0,0,0-.28-2.09,5.11,5.11,0,0,0-.83-1.63A3.81,3.81,0,0,0,223.43,19a3.59,3.59,0,0,0-1.63-.38A4.43,4.43,0,0,0,220,19a9.71,9.71,0,0,0-1.7.93,12,12,0,0,0-1.49,1.23c-.45.44-.84.85-1.17,1.22v16Z"/><path class="cls-1" d="M258.86,6.13,256,3.48V2.23L266.89,0l.82.86-.38,5.32V36.81l3,3.67v.91L260.1,43.54l-1-4.17A15,15,0,0,1,257.37,41a11.39,11.39,0,0,1-2.13,1.32,12.94,12.94,0,0,1-2.59.91,13.16,13.16,0,0,1-3.11.35,10.19,10.19,0,0,1-4.57-1,9.89,9.89,0,0,1-3.46-2.8,12.87,12.87,0,0,1-2.19-4.29,18.37,18.37,0,0,1-.77-5.5,18.19,18.19,0,0,1,1-6.28,14.28,14.28,0,0,1,3-5,13.76,13.76,0,0,1,4.74-3.27,15.81,15.81,0,0,1,6.26-1.18,9.43,9.43,0,0,1,2.89.45,9.33,9.33,0,0,1,2.37,1.12Zm0,14.84a7.26,7.26,0,0,0-1.74-3.15,4,4,0,0,0-2.91-1.07,5.77,5.77,0,0,0-2.78.66,5.67,5.67,0,0,0-2.08,2A10.74,10.74,0,0,0,248,22.93a24.84,24.84,0,0,0-.45,5.07q0,5.71,1.71,8.45a5.48,5.48,0,0,0,4.93,2.73,5.82,5.82,0,0,0,2.47-.57A6.37,6.37,0,0,0,258.86,37Z"/><path class="cls-1" d="M309.81,40.49a9.6,9.6,0,0,0,1.14-.1,8.6,8.6,0,0,0,3.39-1.33,13.74,13.74,0,0,0,2.76-2.46,16.46,16.46,0,0,0,2.07-3.06,18.39,18.39,0,0,0,1.29-3.13h1.74L321,41.8c-.88.2-1.72.4-2.52.61s-1.65.38-2.54.53-1.86.29-2.92.39-2.27.16-3.65.18l-.47,0h-.5A23.29,23.29,0,0,1,300,42.06a19.28,19.28,0,0,1-6.6-4.14,18.55,18.55,0,0,1-4.29-6.37,21.16,21.16,0,0,1-1.53-8.15A23,23,0,0,1,289,15.06a19.25,19.25,0,0,1,4.2-6.59,19,19,0,0,1,6.59-4.34,22.87,22.87,0,0,1,8.63-1.56h.33c1.49,0,2.79.05,3.92.15s2.14.23,3.07.38,1.8.34,2.64.54l2.61.64,1.19,11.39h-1.74a19.43,19.43,0,0,0-1.22-3,16.5,16.5,0,0,0-1.92-2.94,14,14,0,0,0-2.56-2.43,8.86,8.86,0,0,0-3.18-1.46,11.53,11.53,0,0,0-1.37-.19c-.45,0-.88-.06-1.3-.06q-5.88,0-8.75,4.54t-2.89,13.12q0,8.72,3,13a9.83,9.83,0,0,0,8.51,4.26Z"/><path class="cls-1" d="M341.51,24a5.84,5.84,0,0,0-1.22-4c-.82-.92-2.19-1.38-4.1-1.38a10.07,10.07,0,0,0-2,.22,13,13,0,0,0-2,.61,17.63,17.63,0,0,0-1.86.87,10.43,10.43,0,0,0-1.57,1l-1.57-2.29a21.57,21.57,0,0,1,2.7-1.94A21,21,0,0,1,333,15.6a19.74,19.74,0,0,1,3.44-1,18.49,18.49,0,0,1,3.64-.36,14,14,0,0,1,4.8.71,7.44,7.44,0,0,1,3,2A7.52,7.52,0,0,1,349.45,20,17.59,17.59,0,0,1,350,24V36.81l3,3.69v.89l-10.22,2.15-1-4.2a13.6,13.6,0,0,1-4,3,10.81,10.81,0,0,1-4.9,1.16,9.74,9.74,0,0,1-2.93-.42,6.88,6.88,0,0,1-2.32-1.19A5.71,5.71,0,0,1,326.1,40a5.84,5.84,0,0,1-.55-2.6,6.83,6.83,0,0,1,1.31-4.11,11.63,11.63,0,0,1,3.5-3.09,20.51,20.51,0,0,1,5.09-2.07,36.49,36.49,0,0,1,6.06-1.05Zm-1.84,14.35A8.5,8.5,0,0,0,341.51,37V29.61a15.8,15.8,0,0,0-3.15.64,8.87,8.87,0,0,0-2.43,1.18,4.91,4.91,0,0,0-1.54,1.68,4.38,4.38,0,0,0-.54,2.18,3.9,3.9,0,0,0,.87,2.8,3.23,3.23,0,0,0,2.44.9A4.88,4.88,0,0,0,339.67,38.35Z"/><path class="cls-1" d="M367.18,43.14a13,13,0,0,1-2.34-.93v7.62l3.78,3.39v1.11H353V53.22l3.4-3.39h0V21.22l-3.11-3.53V16.53l10.56-2.29.74.71-.36,4.14h.61a22.23,22.23,0,0,1,1.79-1.85,12.93,12.93,0,0,1,2.07-1.54A10.9,10.9,0,0,1,371,14.64a8.18,8.18,0,0,1,2.57-.4,10.91,10.91,0,0,1,4.69,1A10.58,10.58,0,0,1,382,18a13.15,13.15,0,0,1,2.37,4.36,18.05,18.05,0,0,1,.84,5.67,18.37,18.37,0,0,1-1,6.18,13.85,13.85,0,0,1-2.89,4.91,13.43,13.43,0,0,1-4.66,3.25,16,16,0,0,1-6.29,1.17A11,11,0,0,1,367.18,43.14Zm-2.34-6.5a5.7,5.7,0,0,0,.69,2A5,5,0,0,0,366.69,40a4.44,4.44,0,0,0,1.42.79,4.63,4.63,0,0,0,1.5.25,5.32,5.32,0,0,0,5-2.78q1.56-2.76,1.56-8.37,0-5.82-1.6-8.54A5,5,0,0,0,370,18.62a4.52,4.52,0,0,0-1.68.31,7.17,7.17,0,0,0-1.48.77,6.33,6.33,0,0,0-1.18,1.06,8.53,8.53,0,0,0-.84,1.15Z"/><path class="cls-1" d="M390.25,38.38V21.22l-3.12-3.56V16.55l11.09-2.26.85.8-.36,4.06V38.38l3.39,3.39v1.11H386.86V41.77Z"/><path class="cls-1" d="M415.25,17.47V35a3.94,3.94,0,0,0,1,3.06,4,4,0,0,0,2.69.86,5.27,5.27,0,0,0,1.36-.17,5.6,5.6,0,0,0,1.15-.44,5.85,5.85,0,0,0,1-.62c.3-.23.58-.46.85-.68l1.3,2a12,12,0,0,1-1.67,1.68,11.76,11.76,0,0,1-2.19,1.46,13.35,13.35,0,0,1-2.63,1,11,11,0,0,1-3,.4,10.78,10.78,0,0,1-3.21-.46,7.3,7.3,0,0,1-2.62-1.38,6.16,6.16,0,0,1-1.75-2.36,8.33,8.33,0,0,1-.64-3.39V17.47h-3.53V15.75l3.81-1.84,6.45-6.38h1.57V15h8.3v2.52Z"/><path class="cls-1" d="M443.48,24a5.89,5.89,0,0,0-1.22-4c-.82-.92-2.19-1.38-4.1-1.38a10.07,10.07,0,0,0-2,.22,12.72,12.72,0,0,0-2,.61,17.63,17.63,0,0,0-1.86.87,10.43,10.43,0,0,0-1.57,1l-1.57-2.29a21.57,21.57,0,0,1,2.7-1.94,21,21,0,0,1,3.12-1.53,19.74,19.74,0,0,1,3.44-1,18.49,18.49,0,0,1,3.64-.36,14,14,0,0,1,4.8.71,7.44,7.44,0,0,1,3,2A7.52,7.52,0,0,1,451.42,20,17.59,17.59,0,0,1,452,24V36.81l3,3.69v.89l-10.22,2.15-1-4.2a13.6,13.6,0,0,1-4,3,10.81,10.81,0,0,1-4.9,1.16,9.74,9.74,0,0,1-2.93-.42,6.88,6.88,0,0,1-2.32-1.19A5.71,5.71,0,0,1,428.07,40a5.84,5.84,0,0,1-.55-2.6,6.83,6.83,0,0,1,1.31-4.11,11.63,11.63,0,0,1,3.5-3.09,20.51,20.51,0,0,1,5.09-2.07,36.49,36.49,0,0,1,6.06-1.05Zm-1.84,14.35A8.5,8.5,0,0,0,443.48,37V29.61a15.8,15.8,0,0,0-3.15.64,8.87,8.87,0,0,0-2.43,1.18,4.91,4.91,0,0,0-1.54,1.68,4.38,4.38,0,0,0-.54,2.18,3.9,3.9,0,0,0,.87,2.8,3.23,3.23,0,0,0,2.44.9A4.91,4.91,0,0,0,441.64,38.35Z"/><path class="cls-1" d="M473,41.75v1.13H457.74V41.75l3.39-3.37V6.13L458.27,3.5V2.21L469.13,0l.85.86-.38,5.32v32.2Z"/><path class="cls-1" d="M482.36,6.78A4.73,4.73,0,0,1,478,9.69a4.71,4.71,0,0,1-3.36-1.39,4.84,4.84,0,0,1-1-1.52,4.6,4.6,0,0,1-.37-1.85,4.63,4.63,0,0,1,.37-1.85A4.79,4.79,0,0,1,476.13.55a4.69,4.69,0,0,1,3.7,0,4.79,4.79,0,0,1,2.53,2.53,4.69,4.69,0,0,1,0,3.7Zm-.47-3.5A4.45,4.45,0,0,0,479.63,1,4.19,4.19,0,0,0,478,.69a4.12,4.12,0,0,0-1.65.33,4.38,4.38,0,0,0-2.25,2.26,4.2,4.2,0,0,0-.34,1.65,4.13,4.13,0,0,0,.34,1.65A4.34,4.34,0,0,0,475,7.93a4.47,4.47,0,0,0,1.34.91,4.12,4.12,0,0,0,1.65.33,4.19,4.19,0,0,0,1.65-.33A4.47,4.47,0,0,0,481,7.93a4.37,4.37,0,0,0,.92-1.35,4.12,4.12,0,0,0,.33-1.65A4.19,4.19,0,0,0,481.89,3.28Zm-5.59,3v-3l-.44-.51V2.58h2.33a2.56,2.56,0,0,1,1.44.32,1,1,0,0,1,.48.83.91.91,0,0,1-.13.5,1.06,1.06,0,0,1-.33.37,1.78,1.78,0,0,1-.47.26,3.24,3.24,0,0,1-.53.16l.35.08a1.16,1.16,0,0,0,.26,0l1,1.6.11.19V7h-1.53L478,5.09h-.18l0-.38H478a.58.58,0,0,0,.51-.25,1.15,1.15,0,0,0,.17-.7.85.85,0,0,0-.18-.63,1.09,1.09,0,0,0-.69-.16h-.22V6.25l.35.67V7h-2V6.92Z"/></g></g></svg>